<svg xmlns="http://www.w3.org/2000/svg" width="160" height="25" fill="none"><path d="M118.578 4.6897C113.644 4.6897 110.284 7.2919 110.284 12.0347C110.284 16.7775 113.617 19.4342 118.578 19.4342C123.539 19.4342 126.845 16.6154 126.845 12.0347C126.845 7.45394 123.484 4.6897 118.578 4.6897ZM119.662 14.9896C119.445 15.2878 119.093 15.4226 118.578 15.4226C118.063 15.4226 117.683 15.2606 117.44 14.9623C117.087 14.5293 116.952 13.553 116.952 12.0347C116.952 10.5164 117.061 9.62313 117.412 9.16151C117.683 8.83607 118.063 8.70126 118.578 8.70126C119.065 8.70126 119.418 8.81019 119.689 9.16151C120.015 9.59589 120.177 10.5436 120.177 12.0347C120.177 13.5258 120.04 14.528 119.662 14.9896Z" fill="#FFFAF5"/><path d="M40.2 13.0723C40.2627 10.4497 39.6104 8.4153 38.2678 6.99369C36.8857 5.52986 34.7709 4.6897 31.9795 4.6897C29.459 4.6897 27.4259 5.39506 26.0438 6.61378C24.58 7.88832 23.8215 9.7307 23.8215 12.0347C23.8215 14.3387 24.58 16.2083 26.0166 17.4828C27.3987 18.7288 29.4317 19.4342 32.0339 19.4342C36.0863 19.4342 38.9554 17.9662 39.9113 15.1843C39.9113 15.1843 39.9127 15.1816 39.9154 15.1734C39.9781 14.9882 40.0339 14.7962 40.0802 14.6001C40.0952 14.5402 40.1102 14.4803 40.1238 14.4231C40.1592 14.2692 40.0434 14.1222 39.8855 14.1222H34.1269C34.0152 14.1222 33.9172 14.1984 33.8913 14.3074C33.653 15.2769 33.1355 15.8297 32.0898 15.8297C30.6532 15.8297 30.1657 14.9079 30.1657 13.3092H39.9576C40.0897 13.3092 40.1987 13.2044 40.2014 13.0723H40.2ZM30.1643 10.3271C30.2188 9.7307 30.3264 9.27045 30.5715 8.945C30.8969 8.51198 31.3844 8.29411 32.0898 8.29411C32.7951 8.29411 33.2009 8.48339 33.4991 8.89053C33.7429 9.21598 33.879 9.70347 33.9063 10.3271H30.1657H30.1643Z" fill="#FFFAF5"/><path d="M55.0997 5.82806C54.2596 5.04236 53.0939 4.68969 51.5225 4.68969C49.3806 4.68969 48.0352 5.55709 47.3122 6.85478C47.2713 6.92832 47.1583 6.89836 47.1583 6.81393V0.245105C47.1583 0.110297 47.0494 0 46.9132 0H41.1423C41.0075 0 40.8972 0.108936 40.8972 0.245105V18.7274C40.8972 18.8622 41.0062 18.9725 41.1423 18.9725H47.0494C47.1842 18.9725 47.2945 18.8636 47.2945 18.7274V11.4097C47.2945 9.83826 47.9726 9.29495 48.7583 9.29495C49.1927 9.29495 49.4623 9.34941 49.7074 9.59316C50.0056 9.89137 50.0601 10.3244 50.0601 11.0842V18.7261C50.0601 18.8609 50.169 18.9712 50.3052 18.9712H56.185C56.3198 18.9712 56.4301 18.8622 56.4301 18.7261V10.4061C56.4301 8.29138 56.0774 6.77444 55.1024 5.82534L55.0997 5.82806Z" fill="#FFFAF5"/><path d="M65.0741 4.6897C63.0956 4.6897 60.955 4.96067 59.5184 5.80084C58.2697 6.55522 57.5698 7.70858 57.5167 9.59862C57.5126 9.73206 57.6161 9.84508 57.7496 9.85189L63.3516 10.1501C63.4891 10.1569 63.6076 10.0493 63.609 9.91181C63.6267 8.57734 64.2081 8.23964 65.1027 8.23964C65.7264 8.23964 66.0246 8.32134 66.2684 8.59232C66.5393 8.8633 66.5938 9.29768 66.5938 9.8124V10.1651L62.9349 10.7615C59.5742 11.2762 56.972 12.0088 56.972 15.0985C56.972 17.89 59.0868 19.4355 62.0675 19.4355C64.155 19.4355 65.74 18.7179 66.6428 17.5074C66.6932 17.4406 66.7981 17.4747 66.7981 17.5577V18.7288C66.7981 18.8636 66.9083 18.9739 67.0432 18.9739H72.4205C72.5553 18.9739 72.6656 18.8636 72.6656 18.7288V9.70483C72.6656 5.82944 69.8469 4.69106 65.0769 4.69106L65.0741 4.6897ZM66.5652 13.824C66.5652 15.4498 65.4541 15.9918 64.4246 15.9918C63.53 15.9918 63.0697 15.5846 63.0697 14.8806C63.0697 14.0132 63.801 13.7695 64.6411 13.6061L66.5652 13.1989V13.8226V13.824Z" fill="#FFFAF5"/><path d="M84.688 5.15125H84.6145C82.3867 5.20163 80.9638 5.70137 80.1672 7.64451C80.1331 7.72894 80.0079 7.70307 80.0079 7.61319V5.40452C80.0079 5.26563 79.8948 5.15261 79.7559 5.15261H74.1076C73.9687 5.15261 73.8557 5.26563 73.8557 5.40452V18.7219C73.8557 18.8608 73.9687 18.9738 74.1076 18.9738H79.9997C80.1386 18.9738 80.2516 18.8608 80.2516 18.7219V14.8002C80.2516 11.7378 81.6337 10.6811 84.0194 10.6811C84.2482 10.6811 84.477 10.692 84.669 10.7083C84.816 10.7206 84.9399 10.6035 84.9399 10.4564V5.40452C84.9399 5.26563 84.8269 5.15261 84.688 5.15261V5.15125Z" fill="#FFFAF5"/><path d="M105.025 4.6897C103.561 4.6897 102.45 5.04238 101.61 5.74637C101.092 6.1399 100.71 6.64646 100.42 7.22381C100.387 7.28781 100.294 7.28373 100.269 7.21701C99.6163 5.52442 98.2587 4.6897 96.242 4.6897C94.7782 4.6897 93.6943 5.06961 92.9358 5.80084C92.594 6.10042 92.3026 6.44901 92.0888 6.83709C92.0466 6.91199 91.9336 6.88339 91.9336 6.7976V5.39369C91.9336 5.26025 91.8247 5.15131 91.6912 5.15131H86.1314C85.998 5.15131 85.889 5.26025 85.889 5.39369V18.7315C85.889 18.865 85.998 18.9739 86.1314 18.9739H91.8533C91.9867 18.9739 92.0956 18.865 92.0956 18.7315V11.4124C92.0956 10.5995 92.2305 10.0303 92.4756 9.73206C92.7193 9.40662 93.072 9.29904 93.4519 9.29904C93.8046 9.29904 94.0483 9.29904 94.2921 9.54279C94.6175 9.841 94.6992 10.3285 94.6992 11.0066V18.7329C94.6992 18.8663 94.8082 18.9753 94.9416 18.9753H100.636C100.77 18.9753 100.879 18.8663 100.879 18.7329V11.3321C100.879 10.5736 101.013 10.0316 101.286 9.67896C101.557 9.38074 101.909 9.29904 102.288 9.29904C102.613 9.29904 102.857 9.35351 103.101 9.54279C103.399 9.81376 103.508 10.274 103.508 10.9794V18.7329C103.508 18.8663 103.617 18.9753 103.75 18.9753H109.445C109.578 18.9753 109.687 18.8663 109.687 18.7329V10.3843C109.687 6.39999 108.062 4.69242 105.026 4.69242L105.025 4.6897Z" fill="#FFFAF5"/><path d="M141.724 5.80084C140.911 5.04238 139.746 4.6897 138.2 4.6897C136.046 4.6897 134.657 5.52306 133.923 6.84663C133.878 6.92833 133.755 6.89565 133.755 6.80305V5.39642C133.755 5.26025 133.645 5.14995 133.509 5.14995H127.794C127.659 5.14995 127.549 5.26025 127.549 5.39506V18.7261C127.549 18.8622 127.659 18.9725 127.795 18.9725H133.7C133.836 18.9725 133.946 18.8622 133.946 18.7261V11.4369C133.946 9.81104 134.624 9.29632 135.41 9.29632C135.844 9.29632 136.114 9.35079 136.359 9.5673C136.657 9.86551 136.684 10.353 136.684 11.1128V18.7261C136.684 18.8622 136.795 18.9725 136.931 18.9725H142.835C142.971 18.9725 143.082 18.8622 143.082 18.7261V10.4075C143.082 8.29275 142.729 6.74858 141.727 5.79948L141.724 5.80084Z" fill="#FFFAF5"/><path d="M159.75 5.15125H153.495C153.495 5.15125 153.495 5.15397 153.495 5.15533L153.492 5.15125L151.975 11.5812C151.915 11.8331 151.558 11.8331 151.498 11.5812L150.62 7.85694C150.439 7.02903 150.242 6.17797 150.029 5.33644C150.002 5.2275 149.904 5.15125 149.792 5.15125H143.131C142.959 5.15125 142.841 5.32282 142.902 5.4835L147.94 18.7383C148.1 19.1577 147.79 19.6084 147.341 19.6084H144.979C144.844 19.6097 144.733 19.72 144.733 19.8549V24.0339C144.733 24.1687 144.842 24.279 144.979 24.279H145.092H147.955H147.953H147.992C153 24.2436 154.338 22.3372 155.992 17.4052L159.987 5.47397C160.04 5.31601 159.922 5.15125 159.756 5.15125H159.75Z" fill="#FFFAF5"/><path d="M17.6299 9.3671L17.6231 9.36029C17.5781 9.31127 17.5319 9.26225 17.4842 9.21459C16.437 8.16745 15.0413 7.59009 13.5557 7.59009C12.0701 7.59009 10.6743 8.16745 9.6272 9.21459L9.55095 9.29085L9.47469 9.21459C8.42618 8.16609 7.03181 7.59009 5.54619 7.59009C4.06058 7.59009 2.6662 8.16745 1.6177 9.21595C1.56868 9.26498 1.52102 9.31672 1.472 9.36846C-0.491572 11.4859 -0.490211 14.803 1.47336 16.9218C1.52102 16.9722 1.56868 17.0239 1.6177 17.0729L8.3295 23.7848C8.65495 24.1102 9.08933 24.2899 9.55095 24.2899C10.0126 24.2899 10.4469 24.1102 10.7724 23.7848L17.4828 17.0729C17.5319 17.0239 17.5782 16.9749 17.6285 16.9191C18.5831 15.891 19.1073 14.5497 19.1073 13.1431C19.1073 11.7365 18.5817 10.3965 17.6285 9.3671H17.6299ZM16.4711 15.8515L16.4616 15.861C16.4316 15.8937 16.4016 15.925 16.3703 15.9564L9.65852 22.6682C9.62992 22.6968 9.5918 22.7131 9.55095 22.7131C9.51009 22.7131 9.47197 22.6968 9.44337 22.6682L2.73156 15.9564C2.69752 15.9223 2.6662 15.8883 2.63352 15.8529L2.62808 15.8461C1.22144 14.3291 1.2228 11.953 2.62944 10.436L2.63488 10.4306C2.66756 10.3952 2.69888 10.3611 2.73293 10.3271C3.48322 9.5768 4.48271 9.16285 5.54755 9.16285C6.6124 9.16285 7.61189 9.57544 8.36218 10.3271L9.45699 11.4219C9.48422 11.4491 9.51826 11.4614 9.55367 11.4614C9.58907 11.4614 9.62312 11.4478 9.65035 11.4219L10.7452 10.3271C11.4954 9.5768 12.4949 9.16285 13.5598 9.16285C14.6246 9.16285 15.6241 9.5768 16.3744 10.3271C16.4057 10.3584 16.4343 10.3897 16.4643 10.4211L16.4725 10.4292L16.4793 10.436C17.1628 11.1727 17.5387 12.1327 17.5387 13.1404C17.5387 14.148 17.1615 15.1094 16.4752 15.8488L16.4711 15.8515Z" fill="#FFFAF5"/><path d="M17.6299 1.78947L17.6231 1.78266C17.5781 1.73364 17.5319 1.68462 17.4842 1.63696C16.437 0.589811 15.0413 0.0124512 13.5557 0.0124512C12.0701 0.0124512 10.6743 0.589811 9.6272 1.63696L9.55095 1.71321L9.47469 1.63696C8.42618 0.588449 7.03181 0.0124512 5.54619 0.0124512C4.06058 0.0124512 2.6662 0.589811 1.6177 1.63832C1.56868 1.68734 1.52102 1.73908 1.472 1.79083C-0.491572 3.90827 -0.490211 7.22536 1.47336 9.34416C1.52102 9.39455 1.56868 9.44629 1.6177 9.49531L8.3295 16.2071C8.65495 16.5326 9.08933 16.7123 9.55095 16.7123C10.0126 16.7123 10.4469 16.5326 10.7724 16.2071L17.4828 9.49531C17.5319 9.44629 17.5782 9.39727 17.6285 9.34144C18.5831 8.31336 19.1073 6.97209 19.1073 5.56545C19.1073 4.15882 18.5817 2.81891 17.6285 1.78947H17.6299ZM16.4711 8.27387L16.4616 8.2834C16.4316 8.31608 16.4016 8.3474 16.3703 8.37872L9.65852 15.0905C9.62992 15.1191 9.5918 15.1355 9.55095 15.1355C9.51009 15.1355 9.47197 15.1191 9.44337 15.0905L2.73156 8.37872C2.69752 8.34468 2.6662 8.31063 2.63352 8.27523L2.62808 8.26842C1.22144 6.75149 1.2228 4.37533 2.62944 2.8584L2.63488 2.85295C2.66756 2.81755 2.69888 2.78351 2.73293 2.74946C3.48322 1.99917 4.48271 1.58521 5.54755 1.58521C6.6124 1.58521 7.61189 1.99781 8.36218 2.74946L9.45699 3.84427C9.48422 3.8715 9.51826 3.88376 9.55367 3.88376C9.58907 3.88376 9.62312 3.87014 9.65035 3.84427L10.7452 2.74946C11.4954 1.99917 12.4949 1.58521 13.5598 1.58521C14.6246 1.58521 15.6241 1.99917 16.3744 2.74946C16.4057 2.78078 16.4343 2.8121 16.4643 2.84342L16.4725 2.85159L16.4793 2.8584C17.1628 3.59508 17.5387 4.55507 17.5387 5.56273C17.5387 6.57039 17.1615 7.53174 16.4752 8.27114L16.4711 8.27387Z" fill="#FFFAF5"/></svg>