<svg xmlns="http://www.w3.org/2000/svg" xmlns:xlink="http://www.w3.org/1999/xlink" width="24" height="24"><defs><symbol id="icon_check" viewBox="0 0 24 24"><path id="icon_check-a" fill-rule="evenodd" d="M21.8661312,6.15355805 C21.9553775,6.22347101 22,6.31959989 22,6.44194757 C22,6.56429524 21.9553775,6.66042412 21.8661312,6.73033708 L9.46987952,18.8689139 C9.3806332,18.9563051 9.27800147,19 9.16198126,19 C9.04596104,19 8.94332932,18.9563051 8.854083,18.8689139 L2.13386881,12.2883895 C2.04462249,12.2009983 2,12.1004999 2,11.9868914 C2,11.8732828 2.04462249,11.7727845 2.13386881,11.6853933 L3.20481928,10.6367041 C3.27621633,10.5667912 3.37438581,10.5318352 3.49933066,10.5318352 C3.6242755,10.5318352 3.72244498,10.5667912 3.79384203,10.6367041 L8.854083,15.5917603 C8.94332932,15.6791515 9.04596104,15.7228464 9.16198126,15.7228464 C9.27800147,15.7228464 9.3806332,15.6791515 9.46987952,15.5917603 L20.1793842,5.13108614 C20.2507813,5.04369494 20.3489507,5 20.4738956,5 C20.5988404,5 20.6970099,5.04369494 20.768407,5.13108614 L21.8661312,6.15355805 Z"/></symbol></defs><use xlink:href="#icon_check-a"/></svg>