<svg xmlns="http://www.w3.org/2000/svg" xmlns:xlink="http://www.w3.org/1999/xlink" width="24" height="24"><defs><symbol id="icon_heart" viewBox="0 0 24 24"><path id="icon_heart-a" d="M19.5992138,12.7500796 L12.5193694,19.7817038 C12.2265851,20.072494 11.760872,20.0728035 11.4677184,19.7824026 L4.43061433,12.8110546 C3.12508146,11.4527151 2.6694111,9.49352285 3.2451111,7.70441402 C3.80806406,5.93887888 5.26251818,4.59987024 7.06242652,4.17487938 C8.54337897,3.80360923 10.1141265,4.07518849 11.3863273,4.92590713 C11.600359,5.07128347 11.8031114,5.23181019 11.9930641,5.40609469 C12.1835224,5.23138536 12.3870949,5.07036007 12.6024535,4.92428539 C13.8672139,4.07230109 15.4362223,3.79327169 16.9147101,4.15421689 C18.6032646,4.55456093 19.99106,5.74850307 20.6287176,7.35593299 C21.374901,9.19195786 20.9786895,11.2900916 19.5992138,12.7500796 Z M18.5298095,11.6593677 C19.4760758,10.6574837 19.7484909,9.212302 19.2328752,7.94635084 C18.7791551,6.80025794 17.7880513,5.9470371 16.5687829,5.65794057 C15.4901718,5.3946301 14.3489513,5.59758252 13.4353579,6.21300453 C13.110614,6.43327705 12.8231013,6.70184237 12.5830798,7.00884932 C12.2808531,7.39542194 11.7060791,7.39561181 11.4036082,7.00923896 C11.1631976,6.70214118 10.8754758,6.43338056 10.5551624,6.21579076 C9.63860619,5.60290826 8.49755196,5.40562216 7.41217524,5.67765074 C6.113871,5.98425556 5.07844966,6.93749162 4.68056953,8.18531565 C4.28171417,9.42484882 4.59700389,10.780463 5.49471394,11.7148157 L11.9925286,18.1516145 L18.5298095,11.6593677 Z"/></symbol></defs><use fill-rule="evenodd" xlink:href="#icon_heart-a"/></svg>