<svg xmlns="http://www.w3.org/2000/svg" xmlns:xlink="http://www.w3.org/1999/xlink" width="24" height="24"><defs><symbol id="icon_warning" viewBox="0 0 24 24"><path id="icon_warning-a" d="M12,4 C12.1806179,4 12.3473397,4.045765 12.5001702,4.13729637 C12.6530008,4.22882774 12.7780421,4.3520412 12.8752979,4.50694044 L20.8749574,18.4791787 C20.9583196,18.6481597 21,18.8206585 21,18.9966804 C21,19.1727022 20.9583196,19.3381603 20.8749574,19.4930596 C20.7777016,19.6479588 20.6526603,19.7711723 20.4998298,19.8627036 C20.3469992,19.954235 20.1802775,20 19.9996595,20 L4.00034047,20 C3.81972254,20 3.6530008,19.954235 3.50017024,19.8627036 C3.34733968,19.7711723 3.22229837,19.6479588 3.12504256,19.4930596 C3.04168044,19.3381603 3,19.1727022 3,18.9966804 C3,18.8206585 3.04168044,18.6481597 3.12504256,18.4791787 L11.1247021,4.50694044 C11.2219579,4.3520412 11.3469992,4.22882774 11.4998298,4.13729637 C11.6526603,4.045765 11.8193821,4 12,4 Z M12.0008444,5.82679024 L4.66501422,18.6692813 L19.3366745,18.6692813 L12.0008444,5.82679024 Z M12.3185763,15.2685559 C12.7042041,15.2685559 13.0011848,15.5800008 13.0011848,15.9805837 L13.0011848,16.6802153 C13.0011848,17.0676585 12.6673149,17.2963177 12.3185763,17.2963177 L11.697765,17.2963177 C11.332055,17.2963177 11.0005039,17.0635971 11.0005039,16.6802153 L11.0005039,15.9805837 C11.0005039,15.5691904 11.2681177,15.2685559 11.697765,15.2685559 L12.3185763,15.2685559 Z M12.305671,9.86119123 C13.0011848,9.86119123 13.0011848,10.5089185 13.0011848,10.593409 L13.0011848,11.4665026 C13.0011848,11.5369114 12.9977115,11.6214006 12.9907646,11.7199728 C12.9838178,11.8185451 12.9733977,11.9030343 12.959504,11.9734431 L12.5010146,14.3180426 C12.4871209,14.3743696 12.4523872,14.4342161 12.3968125,14.497584 C12.3412377,14.5609519 12.2787171,14.5926353 12.2092486,14.5926353 L11.8132805,14.5926353 C11.7438121,14.5926353 11.6778181,14.5609519 11.6152965,14.497584 C11.5527749,14.4342161 11.5215146,14.3743696 11.5215146,14.3180426 L11.0421847,11.9945656 C11.0282911,11.9241568 11.0178709,11.8361472 11.0109241,11.7305341 C11.0039773,11.624921 11.0005039,11.5369114 11.0005039,11.4665026 L11.0005039,10.593409 C11.0005039,10.5089185 11.0421847,9.86119123 11.7212775,9.86119123 L12.305671,9.86119123 Z"/></symbol></defs><use fill-rule="evenodd" xlink:href="#icon_warning-a"/></svg>