<svg xmlns="http://www.w3.org/2000/svg" xmlns:xlink="http://www.w3.org/1999/xlink" width="24" height="24"><defs><symbol id="icon_x" viewBox="0 0 24 24"><path id="icon_x-a" fill-rule="evenodd" clip-rule="evenodd" d="M19.7044 18.2864C19.8936 18.4741 20 18.7295 20 18.996C20 19.2624 19.8936 19.5179 19.7044 19.7055C19.5168 19.8947 19.2614 20.0011 18.9949 20.0011C18.7285 20.0011 18.4731 19.8947 18.2854 19.7055L12 13.4194L5.71456 19.7055C5.52692 19.8947 5.27151 20.0011 5.00507 20.0011C4.73863 20.0011 4.48321 19.8947 4.29558 19.7055C4.10641 19.5179 4 19.2624 4 18.996C4 18.7295 4.10641 18.4741 4.29558 18.2864L10.581 12.0003L4.29558 5.71418C3.90375 5.3223 3.90375 4.68693 4.29558 4.29505C4.68742 3.90317 5.32272 3.90317 5.71456 4.29505L12 10.5812L18.2854 4.29505C18.6773 3.90317 19.3126 3.90317 19.7044 4.29505C20.0963 4.68693 20.0963 5.3223 19.7044 5.71418L13.419 12.0003L19.7044 18.2864Z"/></symbol></defs><use fill-rule="evenodd" xlink:href="#icon_x-a"/></svg>