<svg xmlns="http://www.w3.org/2000/svg" xmlns:xlink="http://www.w3.org/1999/xlink" width="24" height="24"><defs><symbol id="icon_lock" viewBox="0 0 24 24"><path id="icon_lock-a" fill-rule="evenodd" d="M15.1992316,10.4615385 L15.1992316,7.38307692 C15.1992316,5.85192903 14.3834942,4.30769231 11.9992316,4.30769231 C9.57305949,4.30769231 8.79923159,5.86811706 8.79923159,7.38307692 L8.79923159,10.4615385 L6.4,10.4615385 L6.4,6.61384615 C6.4,4.24230769 8.02346132,2 11.9581594,2 L12.041953,2 C16.0162439,2 17.5993125,4.24230769 17.5993125,6.61384615 L17.5993125,10.4615385 C18.9254834,10.4615385 20,11.4947275 20,12.7692308 L20,19.6923077 C20,20.966811 18.9254834,22 17.6,22 L6.4,22 C5.0745166,22 4,20.966811 4,19.6923077 L4,12.7692308 C4,11.4947275 5.0745166,10.4615385 6.4,10.4615385 L15.1992316,10.4615385 Z M12,13.3461538 C11.1168,13.3461538 10.4,14.0558035 10.4,14.9311702 C10.4,15.5179196 10.7232,16.022207 11.2,16.2981378 L11.2,16.2981378 L11.2,18.3343169 C11.2,18.5523657 11.38,18.7307692 11.6,18.7307692 L11.6,18.7307692 L12.4,18.7307692 C12.62,18.7307692 12.8,18.5523657 12.8,18.3343169 L12.8,18.3343169 L12.8,16.2981378 C13.2768,16.022207 13.6,15.5155409 13.6,14.9311702 C13.6,14.0558035 12.8832,13.3461538 12,13.3461538 Z"/></symbol></defs><use xlink:href="#icon_lock-a"/></svg>