<svg xmlns="http://www.w3.org/2000/svg" xmlns:xlink="http://www.w3.org/1999/xlink" width="24" height="24"><defs><symbol id="icon_circle_arrows" viewBox="0 0 24 24"><path id="icon_circle_arrows-a" fill-rule="evenodd" d="M20.871611,10.4992578 C20.9534407,10.9873044 20.9960348,11.4886725 20.9960348,12 C20.9960348,16.9705627 16.9710743,21 12.006034,21 C9.80713754,21 7.79262745,20.2096702 6.23047257,18.8972774 L4.81233079,20.8250641 C4.74989992,20.9173384 4.68746998,20.9557855 4.62503911,20.9404064 C4.56260823,20.9250274 4.51578578,20.8712015 4.48457035,20.7789271 L3.01702665,16.0960271 C2.98581122,16.0037527 2.99751683,15.9230139 3.05214385,15.8538081 C3.10677086,15.7846024 3.18090641,15.75 3.27455272,15.75 L8.16016964,15.75 C8.26942367,15.75 8.33965735,15.7807577 8.37087278,15.8422739 C8.40208822,15.9037901 8.38648074,15.9729949 8.32404986,16.0498901 L7.12096015,17.6863768 C8.43258802,18.8167129 10.1396045,19.5 12.006034,19.5 C16.1435676,19.5 19.4977013,16.1421356 19.4977013,12 C19.4977013,11.48609 19.4460709,10.9842524 19.3477196,10.4994022 Z M12.006034,3 C14.2077156,3 16.2245434,3.79233321 17.7875292,5.10771204 L19.214361,3.16785853 C19.2767919,3.07558418 19.3392218,3.03713711 19.4016527,3.05251617 C19.4640836,3.06789523 19.510906,3.12172113 19.5421215,3.21399548 L20.9829733,7.89689549 C21.0141888,7.98916984 21.0024832,8.06990869 20.9478562,8.13911446 C20.8932291,8.20832022 20.8190936,8.24292259 20.7254473,8.24292259 L20.1774233,8.24247342 C20.1785053,8.24482774 20.1795863,8.24718261 20.1806663,8.24953803 L18.49506,8.24932579 C18.4937199,8.24700724 18.4923787,8.24468946 18.4910362,8.24237247 L15.8665222,8.24292259 C15.7572681,8.24292259 15.6870345,8.21216493 15.655819,8.15064869 C15.6246036,8.08913246 15.6402111,8.01992773 15.702642,7.94303244 L16.8972134,6.31889062 C15.5847794,5.18541022 13.8753608,4.5 12.006034,4.5 C7.86850033,4.5 4.51436661,7.85786438 4.51436661,12 C4.51436661,12.5135553 4.56592581,13.0150549 4.66414478,13.499594 L3.14028989,13.4997454 C3.05856921,13.012013 3.01603314,12.5109794 3.01603314,12 C3.01603314,7.02943725 7.04099361,3 12.006034,3 Z"/></symbol></defs><use xlink:href="#icon_circle_arrows-a"/></svg>