<svg xmlns="http://www.w3.org/2000/svg" xmlns:xlink="http://www.w3.org/1999/xlink" width="24" height="24"><defs><symbol id="icon_apple" viewBox="0 0 24 24"><path id="icon_apple-a" fill-rule="evenodd" d="M15.6121525,7.34369479 L15.9054474,7.35870729 C16.2014407,7.35870729 16.727643,7.46025322 17.4840701,7.66334813 C18.2404973,7.86644303 18.8982501,8.35855022 19.4573485,9.13968447 C19.4244603,9.17092984 19.0626962,9.4677564 18.3720454,10.0301731 C17.6813945,10.5925897 17.3360742,11.436202 17.3360742,12.5610354 C17.3689624,13.9358316 17.8129456,14.8888011 18.6680371,15.4199724 C19.5231287,15.9511437 19.9671119,16.2167253 19.9999995,16.2167253 C19.9671119,16.2479707 19.8520051,16.5213636 19.6546763,17.0369122 C19.4573475,17.5524608 19.1120272,18.1226802 18.6187052,18.7475876 C18.2240475,19.3100043 17.7965081,19.8177339 17.3360742,20.2707918 C16.8756403,20.7238497 16.3001065,20.9503752 15.6094557,20.9503752 C14.9516929,20.9816206 14.4419345,20.8722634 14.0801649,20.6223005 C13.7183954,20.3723375 13.1593055,20.2473579 12.4028783,20.2473579 C11.6464512,20.2473579 11.0791393,20.3645263 10.7009258,20.5988665 C10.3227122,20.8332068 9.82117563,20.9659977 9.19630103,20.997243 C8.53853829,21.0284884 7.96300453,20.7941516 7.46968247,20.2942257 C6.97636042,19.7942998 6.51593341,19.2631365 6.08838763,18.7007198 C5.2661842,17.6071319 4.64131897,16.1698664 4.21377319,14.3888803 C3.78622741,12.6078943 3.99999947,11.0300268 4.85508866,9.65523049 C5.28263444,8.96783236 5.8581682,8.42104659 6.58170721,8.01485678 C7.30524623,7.60866697 8.07810585,7.40557511 8.90030928,7.40557511 C9.52518388,7.37432974 10.1253834,7.49149812 10.7009258,7.75708377 C11.2764682,8.02266941 11.7615609,8.15546024 12.1562186,8.15546024 C12.5179881,8.15546024 13.0359684,8.00704696 13.7101753,7.71021595 C14.3843821,7.41338493 15.1161321,7.29621655 15.9054474,7.35870729 Z M15.9054474,3 C15.9712237,3.53117129 15.9054484,4.04671216 15.7081196,4.54663807 C15.5107908,5.04656399 15.2312458,5.4839926 14.8694763,5.85893704 C14.5405949,6.23388148 14.1130556,6.55414172 13.5868454,6.81972736 C13.0606352,7.085313 12.517989,7.18685893 11.9588907,7.12436819 C11.8931144,6.62444228 11.9753336,6.12452386 12.2055505,5.62459794 C12.4357675,5.12467202 12.7153124,4.70286586 13.0441938,4.35916679 C13.3730752,3.98422235 13.8088365,3.67177334 14.3514907,3.42181038 C14.894145,3.17184742 15.4121254,3.03124537 15.9054474,3 Z"/></symbol></defs><use xlink:href="#icon_apple-a"/></svg>