<svg xmlns="http://www.w3.org/2000/svg" xmlns:xlink="http://www.w3.org/1999/xlink" width="24" height="24"><defs><symbol id="icon_envelope" viewBox="0 0 24 24"><path id="icon_envelope-a" fill-rule="evenodd" d="M16.1666667,12.875 L21.267767,18.2311553 C20.8153559,18.7061869 20.1903559,19 19.5,19 L4.5,19 C3.80964406,19 3.18464406,18.7061869 2.73223305,18.2311553 L7.83333333,12.875 L9.94108023,15.0881342 C11.0781902,16.2820997 12.9247184,16.2790457 14.0589198,15.0881342 L16.1666667,12.875 Z M2.10711275,6.86246839 L7,12 L2.10711275,17.1375316 C2.03745468,16.8962157 2,16.6402006 2,16.375 L2,7.625 C2,7.35979944 2.03745468,7.10378429 2.10711275,6.86246839 Z M21.8928872,6.86246839 C21.9625453,7.10378429 22,7.35979944 22,7.625 L22,16.375 C22,16.6402006 21.9625453,16.8962157 21.8928872,17.1375316 L17,12 L21.8928872,6.86246839 Z M19.5,5 C20.1903559,5 20.8153559,5.29381313 21.267767,5.7688447 L13.4755344,13.9506888 C12.6606193,14.8063498 11.3438721,14.8110657 10.5244656,13.9506888 L2.73223305,5.7688447 C3.18464406,5.29381313 3.80964406,5 4.5,5 L19.5,5 Z"/></symbol></defs><use xlink:href="#icon_envelope-a"/></svg>