<svg xmlns="http://www.w3.org/2000/svg" xmlns:xlink="http://www.w3.org/1999/xlink" width="24" height="24"><defs><symbol id="icon_arrow_left_bold" viewBox="0 0 24 24"><path id="icon_arrow_left_bold-a" d="M13.5457 19.2384C13.7636 19.4485 14.0154 19.5734 14.3221 19.5955V19.6H14.4221C15.126 19.6 15.6878 19.0392 15.6878 18.3432C15.6878 17.9976 15.5418 17.6734 15.2918 17.4234L15.2907 17.4223L9.7082 12.0035L15.2908 6.57673L15.2918 6.57573C15.5418 6.32575 15.6878 6.00149 15.6878 5.65674C15.6878 4.95986 15.126 4.39999 14.423 4.39999C14.0788 4.39999 13.7875 4.5284 13.5461 4.76116L7.16491 10.9998C6.85573 11.2912 6.71002 11.6161 6.71002 12.0036L6.71005 12.0058C6.71877 12.3927 6.86528 12.7078 7.16345 13.006L7.1643 13.0068L13.5457 19.2384Z"/></symbol></defs><use fill-rule="evenodd" xlink:href="#icon_arrow_left_bold-a"/></svg>