<svg xmlns="http://www.w3.org/2000/svg" xmlns:xlink="http://www.w3.org/1999/xlink" width="115" height="80"><defs><path id="prefix__a" d="M70.086 37.188L40.193 67.072c-1.236 1.236-3.203 1.237-4.44.003L6.04 37.447c-5.512-5.773-7.436-14.1-5.005-21.703C3.412 8.24 9.553 2.549 17.152.744 23.405-.836 30.037.32 35.41 3.934c.904.618 1.76 1.3 2.562 2.04.804-.742 1.663-1.426 2.573-2.047C45.884.308 52.508-.879 58.75.655c7.13 1.702 12.989 6.776 15.681 13.608 3.15 7.803 1.478 16.72-4.346 22.925z"/><path id="prefix__b" d="M56.64 22c3.129 0 5.778 1.076 7.947 3.228 2.169 2.151 3.253 4.779 3.253 7.883v6.878h.747c1.885 0 3.413 1.516 3.413 3.387v15.238C72 60.484 70.472 62 68.587 62H43.413C41.528 62 40 60.484 40 58.614V43.27c0-1.87 1.528-3.386 3.413-3.386h.747v-6.879c0-3.033 1.084-5.626 3.253-7.777C49.583 23.076 52.231 22 55.36 22h1.28zM56 26.127c-2.133 0-3.947.74-5.44 2.222-1.493 1.482-2.24 3.28-2.24 5.397v6.138h15.36v-6.138c0-2.116-.747-3.915-2.24-5.397-1.493-1.481-3.307-2.222-5.44-2.222z"/></defs><g fill="none" fill-rule="evenodd" transform="translate(20 6)"><use fill="#FFF" fill-opacity=".65" xlink:href="#prefix__a"/><use fill="#FFF" xlink:href="#prefix__b"/></g></svg>